<svg xmlns="http://www.w3.org/2000/svg" width="17" height="17" viewBox="0 0 17 17"><defs><style>.a{fill:#94a4ae;}.b{fill:none;}</style></defs><g transform="translate(-185.461 -109.251)"><path class="a" d="M194.24,110.93a7.1,7.1,0,1,0,7.1,7.1A7.1,7.1,0,0,0,194.24,110.93Zm-.335.589h.012l.03.481a6.016,6.016,0,0,0-1.192.177l.119.469a5.548,5.548,0,0,0-2.611,1.51l-.346-.338a6.062,6.062,0,0,0-.752.945l-.4-.267A6.517,6.517,0,0,1,193.905,111.519Zm.658,0a6.518,6.518,0,0,1,5.156,2.977l-.4.267a6.057,6.057,0,0,0-.75-.943l-.346.337a5.55,5.55,0,0,0-2.613-1.51l.119-.469a6.017,6.017,0,0,0-1.192-.177Zm-.323,2.128a4.188,4.188,0,0,1,.58.036l-.264,2.2a2.171,2.171,0,0,1,1.378.789l1.763-1.322a4.476,4.476,0,0,1,.584,1l-2.026.866a2.175,2.175,0,0,1,.012,1.6l2.009.859a4.475,4.475,0,0,1-.575,1.005l-1.751-1.31a2.172,2.172,0,0,1-1.39.809l.26,2.162a4.482,4.482,0,0,1-1.159,0l.26-2.164a2.172,2.172,0,0,1-1.39-.811l-1.746,1.31a4.476,4.476,0,0,1-.584-1l2.014-.862a2.175,2.175,0,0,1,.012-1.6l-2.021-.863a4.475,4.475,0,0,1,.575-1.005l1.768,1.324a2.17,2.17,0,0,1,1.378-.789l-.264-2.195A3.989,3.989,0,0,1,194.24,113.647Zm-5.8,1.407.435.214a5.99,5.99,0,0,0-.444,1.123l.465.131a5.569,5.569,0,0,0,0,3.017l-.465.131a6,6,0,0,0,.444,1.122l-.435.214a6.526,6.526,0,0,1,0-5.954Zm11.6,0a6.525,6.525,0,0,1,0,5.953l-.435-.214a5.992,5.992,0,0,0,.444-1.122l-.465-.131a5.568,5.568,0,0,0,0-3.017l.465-.131a6.013,6.013,0,0,0-.444-1.123ZM189.166,121.3a6.066,6.066,0,0,0,.752.945l.346-.338a5.551,5.551,0,0,0,2.611,1.51l-.119.469a6.017,6.017,0,0,0,1.192.177l-.03.481a6.518,6.518,0,0,1-5.156-2.977Zm10.151,0,.4.267a6.518,6.518,0,0,1-5.156,2.977l-.03-.481a6.016,6.016,0,0,0,1.192-.177l-.119-.469a5.551,5.551,0,0,0,2.613-1.51l.346.337A6.076,6.076,0,0,0,199.317,121.3Z" transform="translate(-0.145 -0.145)"/><rect class="b" width="17" height="17" transform="translate(185.461 109.251)"/></g></svg>